<svg xmlns="http://www.w3.org/2000/svg" width="110" height="72" viewBox="0 0 110 72">
  <g fill="none" fill-rule="evenodd">
    <rect width="110" height="72"/>
    <path fill="#034EA2" d="M84.0371056,46.0789471 L79.9887902,46.0789471 L77.1791385,36.7221827 L77.1187159,36.7221827 L77.2746063,46.0789471 L74.4770391,46.0789471 L74.4770391,34.6777242 L78.70058,34.6777242 L81.3144625,43.723535 L81.377302,43.723535 L81.2214116,34.6777242 L84.0371056,34.6777242 L84.0371056,46.0789471 Z M71.2806826,43.6941536 C71.0788711,45.8451199 69.4003308,46.5429291 67.3109167,46.5429291 C65.2190856,46.5429291 63.5393369,45.8451199 63.3399422,43.6941536 C63.3302746,43.5851974 63.3097309,43.1493727 63.3157732,42.9375815 L63.3157732,34.6728273 L66.1882644,34.6728273 L66.1882644,43.1983418 C66.1882644,43.3489217 66.1943067,43.5154165 66.2160588,43.6390634 C66.2776899,43.9218598 66.5169635,44.4752102 67.3121251,44.4752102 C68.100036,44.4752102 68.3477688,43.9218598 68.4021491,43.6390634 C68.4251097,43.5141923 68.431152,43.3489217 68.4287351,43.1983418 L68.4287351,34.6728273 L71.3048517,34.6728273 L71.3048517,42.9375815 C71.3108939,43.1493727 71.2903502,43.5851974 71.2806826,43.6941536 L71.2806826,43.6941536 Z M60.6027977,43.9842953 C60.3381466,45.8867436 58.6596063,46.5894497 56.6245725,46.5894497 C54.507364,46.5894497 52.5291275,45.8218595 52.5291275,43.2791408 L52.5327529,42.3989218 L55.5514669,42.3989218 L55.5538838,43.5043985 C55.5538838,44.1226329 55.9828843,44.5364215 56.6862036,44.5364215 C57.437861,44.5364215 57.691636,44.1520144 57.7846868,43.7700556 C57.8354418,43.5533675 57.8716954,43.2044629 57.7593093,42.9277877 C57.1804606,41.4513703 53.1804833,40.774373 52.6910601,38.4446696 C52.5738403,37.8692831 52.5822994,37.4163192 52.6644742,36.9058167 C52.960545,35.0437679 54.6004149,34.3753402 56.6004035,34.3753402 C58.1955606,34.3753402 60.4009861,34.7646443 60.4009861,37.2473759 L60.4009861,38.0480202 L57.5865006,38.0480202 L57.5865006,37.3440899 C57.5865006,36.7197342 57.2022128,36.313291 56.5436062,36.313291 C55.8390785,36.313291 55.5949711,36.7087162 55.5140048,37.0784327 C55.4862104,37.2020796 55.4705005,37.4444764 55.5248809,37.6746311 C55.8427039,39.0102624 60.1157914,39.7227623 60.5931301,42.1124527 C60.6426766,42.3536254 60.7405612,42.9963444 60.6027977,43.9842953 L60.6027977,43.9842953 Z M46.9061988,46.1989214 L46.8312747,35.8407395 L46.7720605,35.8407395 L44.871165,46.1989214 L41.9853808,46.1989214 L40.0832768,35.8407395 L40.0216457,35.8407395 L39.950347,46.1989214 L37.1020248,46.1989214 L37.3533829,34.6777242 L41.99384,34.6777242 L43.3980616,43.4848108 L43.4584842,43.4848108 L44.8639143,34.6777242 L49.5019544,34.6777242 L49.7484787,46.1989214 L46.9061988,46.1989214 Z M31.7751669,46.1989214 L30.2597676,35.7452498 L30.1957197,35.7452498 L28.6380246,46.1989214 L25.5673472,46.1989214 L27.6760965,34.6777242 L32.7346781,34.6777242 L34.8337598,46.1989214 L31.7751669,46.1989214 Z M95.0509403,43.5778521 C94.9627233,44.5486638 94.5216382,45.2207643 93.8811584,45.6725039 C104.478077,40.8331359 110.729401,35.4404174 109.931823,30.8091679 C108.438175,22.1073647 82.6340924,19.3908057 52.2946878,24.7467974 C39.0307148,27.0862946 27.0972479,30.5802375 17.990351,34.4989871 C18.4858164,34.3753402 19.02962,34.3116804 19.6096771,34.3116804 C21.2205441,34.3116804 23.4440964,34.7034329 23.4440964,37.2130976 L23.4440964,38.0223114 L20.6078587,38.0223114 L20.6078587,37.3110357 C20.6078587,36.6817832 20.2151117,36.2655462 19.5504629,36.2655462 C18.8386845,36.2655462 18.5897433,36.6707652 18.5111939,37.0380332 C18.484608,37.1690254 18.4688981,37.4138708 18.5232784,37.6452496 C18.8447268,38.9943474 23.1613186,39.7141927 23.6410741,42.1259192 C23.6882038,42.3719888 23.7909222,43.0232774 23.6531587,44.0185737 C23.3836738,45.9381611 21.6894236,46.650661 19.6326377,46.650661 C17.493677,46.650661 15.4973138,45.8757255 15.4973138,43.307298 L15.4997307,42.4148367 L18.5498644,42.4148367 L18.5498644,43.5301072 C18.5498644,44.1630324 18.9824903,44.576821 19.6954772,44.576821 C20.4519684,44.576821 20.7081603,44.1862927 20.803628,43.8031098 C20.8555915,43.5864216 20.8894281,43.2277232 20.7782505,42.9485996 C20.1933596,41.4574915 16.1535034,40.7755972 15.6568295,38.4214093 C15.5371927,37.8435743 15.5492772,37.3820409 15.631452,36.864193 C15.7643817,36.0402884 16.1680048,35.4587808 16.7396028,35.0535617 C5.77410616,39.9614865 -0.743077353,45.4705065 0.0677941729,50.1886761 C1.56385818,58.8917035 27.372775,61.6082625 57.7109712,56.2559435 C71.2637643,53.8625803 83.418378,50.2658024 92.5953651,46.2429935 C92.1144011,46.3617435 91.5923497,46.4217306 91.050963,46.4217306 C89.0316392,46.4217306 87.2395043,45.6737281 87.0473604,43.5778521 C87.0147322,43.1934449 87.0098984,43.0342954 87.006273,42.8188315 L87.0086899,37.9672212 C87.0086899,37.7627754 87.0340674,37.4004043 87.0558196,37.2082007 C87.3083861,35.054786 89.0316392,34.3618737 91.050963,34.3618737 C93.06787,34.3618737 94.8334189,35.0511133 95.0424812,37.2082007 C95.0799432,37.5754687 95.0678587,37.9672212 95.0678587,37.9672212 L95.0678587,38.3516284 L92.2002012,38.3516284 L92.2002012,37.7064609 C92.2026181,37.7076852 92.1965759,37.4322342 92.1627392,37.2681878 C92.1144011,37.0135486 91.8956712,36.4283683 91.0292109,36.4283683 C90.2002126,36.4283683 89.9573137,36.9817188 89.8968911,37.2681878 C89.8618459,37.4199919 89.848553,37.625662 89.848553,37.8117444 L89.848553,43.080816 C89.8461361,43.226499 89.8545952,43.3868727 89.8775558,43.5190892 C89.9271024,43.8275943 90.2135056,44.3540118 91.0364616,44.3540118 C91.8606261,44.3540118 92.1482378,43.8263701 92.2014097,43.5190892 C92.2219534,43.3868727 92.2279956,43.226499 92.2267872,43.080816 L92.2267872,41.4085224 L91.0594222,41.4085224 L91.0594222,39.726435 L95.0920277,39.726435 L95.0920277,42.8188315 C95.0896108,43.0342954 95.084777,43.1934449 95.0509403,43.5778521 L95.0509403,43.5778521 Z"/>
  </g>
</svg>
